<svg width="99" height="44" viewBox="0 0 99 44" fill="none" xmlns="http://www.w3.org/2000/svg">
<rect width="99" height="44" rx="22" fill="black"/>
<path d="M31.04 18.464C30.448 17.312 29.616 16.672 28.128 16.672C27.376 16.672 26.736 16.944 26.192 17.488C25.648 18.032 25.376 18.704 25.376 19.52C25.376 20.352 25.632 20.976 26.208 21.488C26.784 21.984 27.216 22.24 28.096 22.64C29.44 23.28 30.208 23.84 30.208 24.816C30.208 25.344 30.064 25.792 29.776 26.144C29.408 26.576 28.912 26.784 28.256 26.784C26.928 26.784 26.288 25.888 25.856 24.368L24.64 25.104C24.832 25.984 25.248 26.72 25.904 27.28C26.56 27.84 27.344 28.128 28.256 28.128C29.28 28.128 30.112 27.776 30.752 27.072C31.328 26.448 31.616 25.68 31.616 24.784C31.568 23.664 31.168 23.008 30.416 22.448C29.888 22.048 29.584 21.888 28.944 21.568L28.08 21.12C27.904 21.024 27.696 20.88 27.44 20.704C26.944 20.32 26.784 19.936 26.784 19.408C26.784 18.656 27.36 18.016 28.128 18.016C28.88 18.016 29.392 18.288 29.904 19.2L31.04 18.464ZM33.751 25.616C33.751 27.216 34.647 28.128 36.119 28.128C37.287 28.128 38.183 27.584 38.791 26.512V28H40.135V19.936H38.791V23.312C38.791 24.384 38.567 25.264 38.103 25.92C37.655 26.576 37.111 26.912 36.487 26.912C35.559 26.912 35.095 26.368 35.095 25.264V19.936H33.751V25.616ZM46.4805 28.128C48.7845 28.128 50.0645 26.464 50.0645 23.968C50.0645 21.472 48.7845 19.808 46.4805 19.808C46.0005 19.808 45.5205 19.92 45.0565 20.16C44.5925 20.4 44.2725 20.64 44.1285 20.896V16.672H42.7845V28H44.1285V27.008C44.5285 27.632 45.5205 28.128 46.4805 28.128ZM46.3525 21.024C47.7605 21.024 48.6885 22.224 48.6885 23.968C48.6885 25.712 47.7605 26.912 46.3525 26.912C44.8965 26.912 44.0165 25.712 44.0165 23.968C44.0165 22.224 44.8965 21.024 46.3525 21.024ZM63.134 22.32C63.134 20.736 62.318 19.808 60.862 19.808C59.71 19.808 58.83 20.368 58.238 21.488C57.982 20.416 57.182 19.808 56.078 19.808C54.942 19.808 54.11 20.352 53.566 21.424V19.936H52.222V28H53.566V24.688C53.566 22.432 54.494 21.024 55.71 21.024C56.574 21.024 57.006 21.552 57.006 22.608V28H58.35V24.688C58.35 22.432 59.278 21.024 60.494 21.024C61.358 21.024 61.79 21.552 61.79 22.608V28H63.134V22.32ZM65.863 28H67.207V19.936H65.863V28ZM65.527 17.696C65.527 18.256 65.959 18.688 66.535 18.688C67.111 18.688 67.543 18.256 67.543 17.696C67.543 17.12 67.111 16.672 66.535 16.672C65.959 16.672 65.527 17.12 65.527 17.696ZM70.4326 21.152V25.472C70.4326 27.216 71.3446 28.128 72.7686 28.128C73.2966 28.128 73.7286 28.032 74.0806 27.824L73.7606 26.656C73.5046 26.832 73.2006 26.912 72.8486 26.912C72.1606 26.912 71.7766 26.432 71.7766 25.584V21.152H73.8886V19.936H71.7766V16.672L70.4326 17.52V19.936H69.0406V21.152H70.4326Z" fill="white"/>
</svg>
